HIERARCHY
ROOT Hips
{
	OFFSET 0.000000 0.000000 0.000000
	CHANNELS 6 Xposition Yposition Zposition Zrotation Yrotation Xrotation 
	JOINT LHipJoint
	{
		OFFSET 0.000000 0.000000 0.000000
		CHANNELS 3 Zrotation Yrotation Xrotation
		JOINT LeftUpLeg
		{
			OFFSET 1.363060 -1.794630 0.839290
			CHANNELS 3 Zrotation Yrotation Xrotation
			JOINT LeftLeg
			{
				OFFSET 2.448110 -6.726130 0.000000
				CHANNELS 3 Zrotation Yrotation Xrotation
				JOINT LeftFoot
				{
					OFFSET 2.562200 -7.039590 0.000000
					CHANNELS 3 Zrotation Yrotation Xrotation
					JOINT LeftToeBase
					{
						OFFSET 0.157640 -0.433110 2.322550
						CHANNELS 3 Zrotation Yrotation Xrotation
						End Site
						{
							OFFSET 0.000000 0.000000 0.000000
						}
					}
				}
			}
		}
	}
	JOINT RHipJoint
	{
		OFFSET 0.000000 0.000000 0.000000
		CHANNELS 3 Zrotation Yrotation Xrotation
		JOINT RightUpLeg
		{
			OFFSET -1.305520 -1.794630 0.839290
			CHANNELS 3 Zrotation Yrotation Xrotation
			JOINT RightLeg
			{
				OFFSET -2.542530 -6.985550 0.000000
				CHANNELS 3 Zrotation Yrotation Xrotation
				JOINT RightFoot
				{
					OFFSET -2.568260 -7.056230 0.000000
					CHANNELS 3 Zrotation Yrotation Xrotation
					JOINT RightToeBase
					{
						OFFSET -0.164730 -0.452590 2.363150
						CHANNELS 3 Zrotation Yrotation Xrotation
						End Site
						{
							OFFSET 0.000000 0.000000 0.000000
						}
					}
				}
			}
		}
	}
	JOINT LowerBack
	{
		OFFSET 0.000000 0.000000 0.000000
		CHANNELS 3 Zrotation Yrotation Xrotation
		JOINT Spine
		{
			OFFSET 0.028270 2.035590 -0.193380
			CHANNELS 3 Zrotation Yrotation Xrotation
			JOINT Spine1
			{
				OFFSET 0.056720 2.048850 -0.042750
				CHANNELS 3 Zrotation Yrotation Xrotation
				JOINT Neck
				{
					OFFSET 0.000000 0.000000 0.000000
					CHANNELS 3 Zrotation Yrotation Xrotation
					JOINT Neck1
					{
						OFFSET -0.054170 1.746240 0.172020
						CHANNELS 3 Zrotation Yrotation Xrotation
						JOINT Head
						{
							OFFSET 0.104070 1.761360 -0.123970
							CHANNELS 3 Zrotation Yrotation Xrotation
							End Site
							{
								OFFSET 0.000000 0.000000 0.000000
							}
						}
					}
				}
				JOINT LeftShoulder
				{
					OFFSET 0.000000 0.000000 0.000000
					CHANNELS 3 Zrotation Yrotation Xrotation
					JOINT LeftArm
					{
						OFFSET 3.362410 1.200890 -0.311210
						CHANNELS 3 Zrotation Yrotation Xrotation
						JOINT LeftForeArm
						{
							OFFSET 4.983000 -0.000000 -0.000000
							CHANNELS 3 Zrotation Yrotation Xrotation
							JOINT LeftHand
							{
								OFFSET 3.483560 -0.000000 -0.000000
								CHANNELS 3 Zrotation Yrotation Xrotation
								JOINT LeftFingerBase
								{
									OFFSET 0.000000 0.000000 0.000000
									CHANNELS 3 Zrotation Yrotation Xrotation
									JOINT LeftHandIndex1
									{
										OFFSET 0.715260 -0.000000 -0.000000
										CHANNELS 3 Zrotation Yrotation Xrotation
										End Site
										{
											OFFSET 0.000000 0.000000 0.000000
										}
									}
								}
								JOINT LThumb
								{
									OFFSET 0.000000 0.000000 0.000000
									CHANNELS 3 Zrotation Yrotation Xrotation
									End Site
									{
										OFFSET 0.000000 0.000000 0.000000
									}
								}
							}
						}
					}
				}
				JOINT RightShoulder
				{
					OFFSET 0.000000 0.000000 0.000000
					CHANNELS 3 Zrotation Yrotation Xrotation
					JOINT RightArm
					{
						OFFSET -3.136600 1.374050 -0.404650
						CHANNELS 3 Zrotation Yrotation Xrotation
						JOINT RightForeArm
						{
							OFFSET -5.241900 -0.000000 -0.000000
							CHANNELS 3 Zrotation Yrotation Xrotation
							JOINT RightHand
							{
								OFFSET -3.444170 -0.000000 -0.000000
								CHANNELS 3 Zrotation Yrotation Xrotation
								JOINT RightFingerBase
								{
									OFFSET 0.000000 0.000000 0.000000
									CHANNELS 3 Zrotation Yrotation Xrotation
									JOINT RightHandIndex1
									{
										OFFSET -0.622530 -0.000000 -0.000000
										CHANNELS 3 Zrotation Yrotation Xrotation
										End Site
										{
											OFFSET 0.000000 0.000000 0.000000
										}
									}
								}
								JOINT RThumb
								{
									OFFSET 0.000000 0.000000 0.000000
									CHANNELS 3 Zrotation Yrotation Xrotation
									End Site
									{
										OFFSET 0.000000 0.000000 0.000000
									}
								}
							}
						}
					}
				}
			}
		}
	}
}
MOTION
Frames: 8
Frame Time: 0.008333
14.821778 15.159891 1.990901 -35.151487 -87.804229 84.862575 -8.510171 -1.802171 2.642173 -9.520135 -11.283637 -94.873743 -1.519130 4.695858 53.404681 0.318167 -0.810693 -7.091095 0.166300 0.000000 -34.644600 7.901374 0.023877 3.249589 11.710224 9.895782 -96.934106 2.039634 -6.620555 53.438351 1.217031 5.862635 2.185790 0.736800 0.000001 -66.620600 0.180317 -1.586117 -1.810130 -0.363798 -1.625082 -3.605535 -4.416933 -1.540202 -1.568318 5.063746 -5.332841 -1.970937 -2.111285 -0.202779 1.078098 0.000000 0.000000 0.000000 12.457820 10.833728 -1.734101 -80.735741 -35.644732 5.817486 179.110639 -57.871329 179.684513 21.082754 -7.369979 -1.610729 -0.504262 1.078122 -0.000000 0.000000 0.000000 0.000000 0.000000 0.000000 0.000000 -4.430003 -5.110108 -2.950087 71.553825 37.946092 -3.518658 -178.099347 54.668741 179.731418 -18.415605 19.225169 -3.406275 0.279838 -1.217001 -0.000000 0.000000 0.000000 0.000000 0.000000 0.000000 0.000000 
14.665647 14.850659 1.962338 -27.640932 -87.808937 76.708313 -8.441995 -2.058216 2.494415 -9.162163 -11.878844 -96.066887 -1.082631 5.055716 59.124875 0.773949 0.039659 -12.626122 -0.039900 -0.000001 -29.620500 7.713638 0.397712 3.003988 11.087732 9.851866 -97.927023 1.524683 -6.910422 58.696202 0.909537 5.557871 -3.321060 0.385900 -0.000000 -63.001300 0.006627 -1.595492 -1.498049 -0.427976 -1.622702 -3.593915 -4.525053 -1.533946 -1.846775 5.263499 -5.183056 -2.043438 -2.128255 -0.202784 1.056784 0.000000 0.000000 0.000000 12.382092 10.192359 -1.672016 -81.053844 -35.046286 5.543080 179.044450 -58.537873 179.686343 20.878757 -7.812993 -1.679186 -0.481627 1.086589 -0.000000 0.000000 0.000000 0.000000 0.000000 0.000000 0.000000 -4.248379 -4.743775 -2.850738 73.022618 36.693760 -3.017109 -178.043196 55.372511 179.733224 -17.781970 19.949582 -3.404602 0.245952 -1.229990 -0.000000 0.000000 0.000000 0.000000 0.000000 0.000000 0.000000 
14.519050 14.552951 1.932576 -21.075704 -87.746309 69.627065 -8.382058 -2.328203 2.333860 -8.774273 -12.473333 -97.425088 -0.618979 5.413438 64.684105 1.224756 0.988675 -17.427192 -0.383700 0.000000 -25.809500 7.556789 0.818593 2.770717 10.440604 9.915571 -99.078802 0.990845 -7.178806 63.928202 0.546007 5.049095 -8.386741 0.126100 0.000000 -59.510300 -0.117526 -1.594152 -1.149650 -0.487635 -1.611493 -3.577582 -4.650701 -1.519399 -2.143368 5.461660 -5.021061 -2.127725 -2.154812 -0.203009 1.028192 0.000000 0.000000 0.000000 12.218809 9.479394 -1.584379 -81.158338 -34.510836 5.093934 178.985160 -59.405201 179.686707 20.858013 -8.197741 -1.749580 -0.463199 1.089311 -0.000000 0.000000 0.000000 0.000000 0.000000 0.000000 0.000000 -3.932950 -4.353390 -2.727428 74.434729 35.466489 -2.596765 -177.991134 56.251788 179.733547 -17.321737 20.739903 -3.439553 0.215505 -1.239957 -0.000000 0.000000 0.000000 0.000000 0.000000 0.000000 0.000000 
14.382342 14.271560 1.902099 -15.719547 -87.627539 63.896110 -8.330416 -2.617071 2.159008 -8.349445 -13.045977 -98.927839 -0.117342 5.763139 69.984653 1.636044 2.013172 -21.318326 -0.815200 -0.000000 -23.629100 7.431976 1.259051 2.550751 9.782170 10.089305 -100.364725 0.429052 -7.427487 69.001659 0.145453 4.290274 -12.783628 -0.008500 0.000000 -56.640700 -0.186269 -1.585628 -0.760554 -0.541774 -1.595377 -3.554397 -4.790184 -1.500436 -2.451292 5.658241 -4.839886 -2.225745 -2.193197 -0.203560 0.991430 0.000000 0.000000 0.000000 11.949832 8.707696 -1.469137 -81.060540 -34.022503 4.493479 178.937991 -60.489539 179.685869 21.026688 -8.458973 -1.811615 -0.449511 1.084082 -0.000000 0.000000 0.000000 0.000000 0.000000 0.000000 0.000000 -3.464683 -3.936245 -2.578789 75.765790 34.260636 -2.252200 -177.947900 57.346495 179.732403 -17.071562 21.523135 -3.509833 0.189791 -1.244114 -0.000000 0.000000 0.000000 0.000000 0.000000 0.000000 0.000000 
14.255257 14.010692 1.871409 -11.571102 -87.473490 59.517429 -8.286993 -2.925385 1.968349 -7.887054 -13.572998 -100.536434 0.422411 6.097342 74.946058 1.980535 3.063904 -24.235368 -1.272700 -0.000000 -23.029200 7.331560 1.697904 2.340392 9.123966 10.362703 -101.745549 -0.163387 -7.654109 73.810954 -0.267307 3.281396 -16.388164 -0.002100 0.000000 -54.566600 -0.205463 -1.573040 -0.324095 -0.590772 -1.577209 -3.521208 -4.936881 -1.480155 -2.762267 5.853387 -4.631228 -2.339547 -2.244165 -0.204470 0.945744 0.000000 0.000000 0.000000 11.564160 7.898455 -1.325333 -80.781060 -33.563640 3.773261 178.906874 -61.806627 179.684299 21.375324 -8.537739 -1.853395 -0.440336 1.069265 -0.000000 0.000000 0.000000 0.000000 0.000000 0.000000 0.000000 -2.832757 -3.488767 -2.404652 76.987097 33.073585 -1.986066 -177.920294 58.697958 179.730030 -17.054649 22.230097 -3.613947 0.169601 -1.240058 -0.000000 0.000000 0.000000 0.000000 0.000000 0.000000 0.000000 
14.137150 13.773659 1.840915 -8.476941 -87.306919 56.334746 -8.250277 -3.247827 1.761438 -7.391388 -14.031395 -102.201627 0.991817 6.407990 79.494262 2.240760 4.079361 -26.174149 -1.690800 0.000000 -23.965100 7.245267 2.120176 2.136275 8.474362 10.720339 -103.174166 -0.781451 -7.851712 78.257266 -0.669014 2.048182 -19.126015 0.133900 0.000000 -53.634300 -0.186273 -1.558167 0.162964 -0.635244 -1.558092 -3.475269 -5.082142 -1.460147 -3.066739 6.046587 -4.387770 -2.471821 -2.306927 -0.205688 0.890438 0.000000 0.000000 0.000000 11.059025 7.078928 -1.153447 -80.349370 -33.117749 2.970917 178.894475 -63.371167 179.682638 21.875830 -8.381385 -1.860517 -0.434685 1.043881 -0.000000 0.000000 0.000000 0.000000 0.000000 0.000000 0.000000 -2.036729 -3.007774 -2.205770 78.068760 31.905292 -1.807418 -177.916413 60.349173 179.726889 -17.277744 22.787865 -3.745996 0.155154 -1.225788 -0.000000 0.000000 0.000000 0.000000 0.000000 0.000000 0.000000 
14.027093 13.562911 1.810972 -6.210357 -87.145866 54.108920 -8.217385 -3.574613 1.538922 -6.874742 -14.402806 -103.863379 1.573357 6.688428 83.571173 2.411905 4.991727 -27.220538 -2.015800 0.000000 -26.075700 7.163908 2.516279 1.934323 7.844629 11.137859 -104.596156 -1.408472 -8.014347 82.268163 -1.040544 0.662792 -21.028959 0.361500 0.000000 -53.698999 -0.141056 -1.543091 0.700614 -0.675301 -1.539229 -3.414081 -5.216009 -1.442199 -3.353986 6.235686 -4.105520 -2.625374 -2.379126 -0.207086 0.825085 0.000000 0.000000 0.000000 10.439605 6.280739 -0.955734 -79.801850 -32.674764 2.127137 178.902577 -65.193858 179.681673 22.479326 -7.943668 -1.815280 -0.430961 1.007691 -0.000000 0.000000 0.000000 0.000000 0.000000 0.000000 0.000000 -1.088905 -2.493325 -1.984229 78.983420 30.763937 -1.726979 -177.944839 62.344957 179.723639 -17.724867 23.118394 -3.891875 0.145989 -1.199880 -0.000000 0.000000 0.000000 0.000000 0.000000 0.000000 0.000000 
13.923688 13.379660 1.781865 -4.549826 -87.002295 52.605677 -8.185712 -3.893677 1.303921 -6.354995 -14.676375 -105.459090 2.143938 6.934140 87.134013 2.500079 5.743060 -27.521855 -2.216400 -0.000000 -28.954800 7.082038 2.878648 1.732678 7.248359 11.588265 -105.957074 -2.020470 -8.138816 85.790214 -1.369871 -0.781644 -22.195574 0.629300 -0.000000 -54.522000 -0.081095 -1.529932 1.281580 -0.710589 -1.521976 -3.336347 -5.328747 -1.428176 -3.612388 6.417143 -3.785811 -2.802984 -2.457011 -0.208471 0.749523 0.000000 0.000000 0.000000 9.716833 5.535858 -0.735449 -79.176220 -32.233011 1.283345 178.932979 -67.283831 179.682300 23.116655 -7.187680 -1.698775 -0.427209 0.961208 -0.000000 0.000000 0.000000 0.000000 0.000000 0.000000 0.000000 -0.014255 -1.949730 -1.742783 79.710457 29.666036 -1.751014 -178.014003 64.726791 179.721122 -18.351931 23.134817 -4.025677 0.141044 -1.161650 -0.000000 0.000000 0.000000 0.000000 0.000000 0.000000 0.000000 
